<?xml version="1.0" encoding="utf-8"?>
<!-- Generator: Adobe Illustrator 23.0.1, SVG Export Plug-In . SVG Version: 6.00 Build 0)  -->
<svg version="1.1" id="Camada_1" xmlns="http://www.w3.org/2000/svg" xmlns:xlink="http://www.w3.org/1999/xlink" x="0px" y="0px"
	 viewBox="0 0 500 463" style="enable-background:new 0 0 500 463;" xml:space="preserve">
<style type="text/css">
	.st0{fill:#FFFFFF;}
	.st1{fill:#598861;}
	.st2{fill:#0484B9;}
	.st3{fill:#181830;}
</style>
<g>
	<path class="st0" d="M494.2,52.5H5.8c-3.2,0-5.8,2.6-5.8,5.8v398.2c0,3.2,2.6,5.8,5.8,5.8h488.3c3.2,0,5.8-2.6,5.8-5.8V58.3
		C500,55.1,497.4,52.5,494.2,52.5z"/>
	<path class="st1" d="M395,171.7c0,0,14.4,36,17.4,54.3c0,0-12.2,7.3-11.3,16.5c0.9,9.1,37.5,46.3,37.5,46.3s6.1,17.1-32.3,18.9
		c0,0-4.3,9.7,1.8,15.2c0,0,6.7,10.4-1.2,15.2c-7.9,4.9-7.9,7.9-7.9,7.9s10.4,6.1,6.7,13.4c-3.7,7.3-25.6,21.3-9.7,53.6
		c0,0-10.4,16.5-27.4,15.8s-31.1-21.3-54.2-25c-23.2-3.7-40.8,33.9-40.8,33.9s15.7,22.4,45.4,25.1H73.3c0,0,106.6-58.4,89.9-130.5
		c0,0-70.6-17.7-56.6-94.2c0,0,4.7-39.5,12.6-61.8c0,0-84-27.3-54.6,73.3c0,0-75.4-90.5,12.2-157.3c0,0,30.5-40.7,100.2-22
		c0,0,39.9-64.9,109.6-69.9s105.1,24.1,116.9,42.7c14.2,22.4,30.6,48.7,15.3,103.1C413.2,166.2,395,171.7,395,171.7z"/>
	<path class="st2" d="M395,171.7c0,0,14.4,36,17.4,54.3c0,0-12.2,7.3-11.3,16.5c0.9,9.1,37.5,46.3,37.5,46.3s6.1,17.1-32.3,18.9
		c0,0-4.3,9.7,1.8,15.2c0,0,6.7,10.4-1.2,15.2c-7.9,4.9-7.9,7.9-7.9,7.9s10.4,6.1,6.7,13.4c-3.7,7.3-25.6,21.3-9.7,53.6
		c0,0-10.4,16.5-27.4,15.8s-31.1-21.3-54.2-25c-23.2-3.7-40.8,33.9-40.8,33.9s15.7,22.4,45.4,25.1H73.3c0,0,106.6-58.4,89.9-130.5
		c0,0-70.6-17.7-56.6-94.2c0,0,4.7-39.5,12.6-61.8c0,0-84-27.3-54.6,73.3c0,0-75.4-90.5,12.2-157.3c0,0,30.5-40.7,100.2-22
		c0,0,39.9-64.9,109.6-69.9s105.1,24.1,116.9,42.7c14.2,22.4,30.6,48.7,15.3,103.1C413.2,166.2,395,171.7,395,171.7z"/>
	<path class="st0" d="M395,171.7c-4.6-2.8-9.4-4.9-14.2-6.7c-4.8-1.7-9.8-2.8-14.7-3.4c-4.9-0.7-9.7-0.4-14.3,0.3
		c-4.7,0.6-9,2.3-13.2,4.1l4.6-5.8c-1.1,12.5-3.6,24.3-7.9,36.3c-2.3,5.9-5.1,11.9-9.1,17.6c-1.1,1.4-2.1,2.8-3.3,4.2l-3.9,4
		c-1.5,1.3-3.1,2.4-4.7,3.6c-1.6,1.1-3.4,2-5.2,2.9c-7.2,3.2-13.7,4.2-19.2,5.4c-5.5,1.1-10.3,2.2-14.4,4.1
		c-8.5,3.4-15.4,10.3-21.6,18.6c-3.2,4.1-5.9,8.8-8.7,13.4c-1.3,2.4-2.5,4.9-3.8,7.3c-1.3,2.5-2.6,4.9-3.7,7.5
		c-4.6,9.9-9.2,21.5-15.4,32.1c-3.1,5.3-6.7,10.4-10.9,15.3c-4.1,4.8-9.1,9.4-15.3,12.3c-3.1,1.5-6.6,2.4-10.1,2.5
		c-3.5,0.1-7-0.7-9.9-2.1c-6-2.8-10.1-7.7-12.9-12.9c4.3,4,9.5,7,14.6,8c5.2,0.9,9.8-0.6,13.6-3.6c7.6-6.3,12.8-16.3,16.8-26.5
		c4.3-10.3,7-20.9,11.3-32.6c4.2-11.4,9.1-22.7,16.6-33.4c1.7-2.7,3.8-5.3,5.9-7.8c2-2.6,4.5-5,7-7.3c2.4-2.5,5.4-4.3,8.2-6.4
		c3-1.8,6.1-3.7,9.4-5c13.1-5.8,26.7-5.5,33.8-8.6c6.7-2.2,12.8-10.8,17.5-20.1c4.7-9.5,8.3-20.4,11-30.9l1.3-4.9l3.3-0.8
		c5.8-1.5,11.7-2.6,17.6-2.4c5.9,0.1,11.6,1.2,17,3.1c5.4,1.8,10.4,4.4,14.9,7.5C387.5,164,391.6,167.6,395,171.7z"/>
	<path class="st0" d="M232.4,272.7l4.8,18.4c1.7,6,3.4,12,5.5,17.7c2,5.6,4.7,11.2,7.8,14.6c1.6,1.6,2.8,2.1,3.5,1.9
		c0.8-0.1,2.6-0.9,4.4-2.4l12.5-10.3l-2.3,17.8c0,0.2-0.3,1.2-0.4,2c-0.1,0.8-0.1,1.7-0.2,2.5c0,1.8,0,3.5,0.4,5.3
		c0.2,1.8,0.8,3.6,1.2,5.3c0.7,1.7,1.1,3.6,2.1,5.2c3.3,6.9,8.3,13.3,14.4,19c3,2.9,6.3,5.6,9.5,8.3c3.6,2.4,6.8,5.3,10.5,7.6
		c3.7,2.2,7.2,5,11,7.1c3.8,2.3,7.6,4.6,11.4,7.1c-4.4-0.9-8.7-2-13.1-3.2c-4.3-1.3-8.5-2.9-12.8-4.6c-4.2-1.7-8.3-3.8-12.4-5.9
		c-2-1.1-3.9-2.4-5.9-3.7c-1.9-1.3-4-2.4-5.8-4c-7.5-5.6-14.2-13-18.9-21.9c-2.3-4.5-4-9.4-4.7-14.6c-0.4-2.6-0.5-5.2-0.4-7.9
		c0.1-1.4,0.2-2.7,0.5-4.1c0.3-1.4,0.5-2.5,1.2-4.5l10.2,7.5c-3.1,2.3-7.2,4.8-12.7,4.8c-2.7-0.1-5.5-1-7.6-2.3
		c-1.1-0.7-2-1.4-2.8-2.2c-0.9-0.8-1.5-1.6-2.2-2.4c-2.5-3.3-4-6.6-5.1-9.9c-1.2-3.3-2-6.6-2.6-9.8c-1.2-6.5-1.9-13-2-19.4
		C231.3,285.5,231.6,279.1,232.4,272.7z"/>
	<path class="st3" d="M395,171.7c0,0,18.1-5.6,23.7-25.3c15.3-54.3-1.1-80.7-15.3-103.1C391.7,24.7,356.2-4.4,286.6,0.6
		S177,70.5,177,70.5c-69.7-18.7-100.2,22-100.2,22c-87.6,66.8-12.2,157.3-12.2,157.3c-29.4-100.6,54.6-73.3,54.6-73.3
		c-7.9,22.3-12.6,61.8-12.6,61.8c-14,76.5,56.6,94.2,56.6,94.2s12.3,11.6,20.2,11.5c11.3-0.1,26.1-10.7,40.7-51
		c30.2-83.3,62.5-62.6,84-75.5c21.6-12.9,28-58.2,28-58.2c11-2.8,26.4-4.7,41.6,1.6C386.6,164.6,389,168.5,395,171.7z"/>
</g>
</svg>
